<svg xmlns="http://www.w3.org/2000/svg" xmlns:xlink="http://www.w3.org/1999/xlink" version="1.1" x="0px" y="0px" viewBox="0 0 100 125" style="enable-background:new 0 0 100 100;" xml:space="preserve"><g><polygon points="62.1,61.7 48,50.6 48,25.7 42.2,25.7 42.2,53.4 58.6,66.3  "/><path d="M87.9,44.5C85.2,24.3,67.9,8.7,47,8.7C24.2,8.7,5.7,27.2,5.7,50S24.2,91.3,47,91.3c12.9,0,24.8-5.9,32.7-16.1l-4.6-3.5   c-6.8,8.8-17,13.9-28.1,13.9c-19.6,0-35.5-15.9-35.5-35.5S27.4,14.5,47,14.5c18,0,32.9,13.5,35.2,30.9L78,41.3l-4.1,4.1L84.6,56   l10.6-10.7l-4.1-4.1L87.9,44.5z"/><rect x="15" y="48.2" width="3.5" height="3.5"/><rect x="45.2" y="18" width="3.5" height="3.5"/><rect x="45.2" y="78.5" width="3.5" height="3.5"/></g><text x="0" y="115" fill="#000000" font-size="5px" font-weight="bold" font-family="'Helvetica Neue', Helvetica, Arial-Unicode, Arial, Sans-serif">Created by Mooyai Khomsun Chaiwong</text><text x="0" y="120" fill="#000000" font-size="5px" font-weight="bold" font-family="'Helvetica Neue', Helvetica, Arial-Unicode, Arial, Sans-serif">from the Noun Project</text></svg>